<svg xmlns="http://www.w3.org/2000/svg" xmlns:xlink="http://www.w3.org/1999/xlink" width="34px" height="34px" viewBox="0 0 34 34" version="1.1">
<g id="surface1">
<path style="fill-rule:nonzero;fill:#dcebeb;fill-opacity:1;stroke-width:3.119097;stroke-linecap:butt;stroke-linejoin:miter;stroke:rgb(0%,0%,0%);stroke-opacity:1;stroke-miterlimit:4;" d="M 964.411765 498.970588 C 925.147059 488.382353 886.985294 463.014706 876.838235 422.426471 C 858.308824 380.735294 870.882353 329.338235 894.705882 296.25 C 918.529412 262.941176 944.558824 260.735294 969.485294 252.573529 C 1016.029412 240.882353 1072.720588 250.367647 1105.588235 276.397059 C 1138.235294 302.426471 1150.588235 342.573529 1143.970588 381.617647 C 1139.338235 423.970588 1112.426471 463.455882 1076.029412 483.970588 C 1042.058824 501.176471 1001.691176 507.573529 964.411765 498.970588 Z M 795.882353 1340.294118 C 777.132353 1305 786.838235 1241.470588 840.220588 1255.808824 C 879.926471 1263.088235 917.426471 1246.323529 906.176471 1202.426471 C 906.397059 1077.794118 900 952.941176 893.382353 828.529412 C 888.75 803.602941 873.088235 782.867647 839.117647 775.367647 C 805.147059 767.867647 779.117647 701.470588 822.573529 689.558824 C 913.014706 662.205882 1002.132353 630.661765 1093.014706 604.411765 C 1126.323529 593.161765 1161.176471 599.558824 1147.941176 641.25 C 1149.926471 838.897059 1147.058824 1036.544118 1152.132353 1234.191176 C 1158.970588 1279.632353 1227.352941 1238.823529 1251.176471 1269.264706 C 1264.411765 1308.75 1252.941176 1363.235294 1199.779412 1346.911765 C 1070.294118 1341.397059 940.588235 1343.382353 811.102941 1347.573529 C 805.147059 1348.014706 798.970588 1345.367647 795.882353 1340.294118 Z M 795.882353 1340.294118 " transform="matrix(0.0177083,0,0,0.0177083,0,0)"/>
</g>
</svg>